<?xml version="1.0" standalone="no"?>
<!DOCTYPE svg PUBLIC "-//W3C//DTD SVG 20010904//EN"
 "http://www.w3.org/TR/2001/REC-SVG-20010904/DTD/svg10.dtd">
<svg version="1.0" xmlns="http://www.w3.org/2000/svg"
 width="1024.000000pt" height="1024.000000pt" viewBox="0 0 1024.000000 1024.000000"
 preserveAspectRatio="xMidYMid meet">
<metadata>
Created by potrace 1.14, written by Peter Selinger 2001-2017
</metadata>
<g transform="translate(0.000000,1024.000000) scale(0.100000,-0.100000)"
fill="#000000" stroke="none">
<path d="M0 5120 l0 -5120 5120 0 5120 0 0 5120 0 5120 -5120 0 -5120 0 0
-5120z m2468 2359 c2 10 5 11 16 2 7 -6 30 -12 50 -13 20 -1 36 -6 37 -12 0
-6 2 -34 4 -63 l3 -51 -24 20 c-13 12 -21 24 -18 27 3 3 9 -1 14 -9 8 -13 10
-12 10 2 0 9 -4 19 -9 22 -11 7 -34 -20 -27 -32 3 -5 -10 -18 -29 -28 -39 -21
-35 3 -39 -246 0 -64 -4 -120 -8 -124 -10 -10 -10 468 -1 532 l8 49 6 -45 c3
-25 7 -39 7 -31z m139 35 c2 -13 1 -15 -4 -4 -3 8 -11 19 -17 23 -7 6 -6 7 4
4 8 -2 16 -12 17 -23z m47 1 c-4 -8 -11 -15 -16 -15 -6 0 -5 6 2 15 7 8 14 15
16 15 2 0 1 -7 -2 -15z m-144 -25 c0 -5 -5 -10 -11 -10 -5 0 -7 5 -4 10 3 6 8
10 11 10 2 0 4 -4 4 -10z m175 1 c-3 -5 3 -12 12 -14 10 -3 0 -5 -22 -5 -22 0
-32 2 -22 5 9 2 17 9 17 14 0 5 5 9 11 9 5 0 8 -4 4 -9z m-165 -171 c0 -5 -2
-10 -4 -10 -3 0 -8 5 -11 10 -3 6 -1 10 4 10 6 0 11 -4 11 -10z m-20 -24 c0
-2 -7 -7 -16 -10 -8 -3 -12 -2 -9 4 6 10 25 14 25 6z m-13 -86 c-3 -11 -1 -23
4 -26 5 -3 9 -11 8 -17 0 -9 -2 -8 -6 1 -2 6 -9 10 -14 6 -5 -3 -9 -2 -9 3 0
16 12 53 17 53 3 0 3 -9 0 -20z m934 -10 c288 0 578 -4 644 -10 316 -26 492
-136 602 -377 33 -72 72 -232 79 -328 17 -224 -90 -470 -257 -588 -80 -57
-273 -174 -315 -192 -20 -8 -52 -29 -72 -46 -66 -58 -89 -63 -294 -65 -104 -1
-188 2 -188 6 0 4 -30 52 -66 106 -75 112 -108 175 -119 222 l-7 32 200 0
c193 0 455 20 537 41 133 35 255 185 286 352 28 156 -49 338 -177 413 -112 66
-357 94 -812 94 -276 0 -256 -6 -340 107 -43 59 -136 153 -150 153 -2 0 27
-34 66 -75 121 -129 115 -103 123 -580 4 -225 6 -743 4 -1149 -2 -711 -3 -739
-21 -749 -11 -5 -59 -42 -109 -82 -85 -67 -154 -115 -169 -115 -3 0 -6 644 -6
1432 0 1402 0 1431 19 1414 17 -16 62 -17 542 -16z m2089 -17 l140 7 -6 -73
c-4 -39 -7 -328 -8 -642 l-1 -570 -82 -56 c-45 -30 -100 -72 -123 -93 -39 -35
-107 -75 -112 -65 -2 2 -2 345 0 762 l2 757 26 -16 c22 -15 44 -16 164 -11z
m1990 6 c0 -6 -10 -25 -22 -42 -20 -28 -24 -49 -29 -162 -4 -71 -4 -289 -2
-482 3 -194 2 -369 -1 -388 -6 -33 -9 -35 -34 -28 -15 5 -84 8 -154 8 l-128 0
-1 110 c-1 61 -2 309 -3 553 l-1 442 188 -1 c122 0 187 -4 187 -10z m-5000
-68 c0 -23 16 -37 22 -19 3 8 6 6 10 -4 10 -25 -25 -15 -38 10 -6 12 -14 19
-19 14 -5 -4 -5 -1 -1 6 11 18 26 14 26 -7z m71 -35 c5 3 8 -14 8 -38 -2 -34
-3 -37 -6 -13 -3 17 -9 34 -14 40 -5 5 -9 14 -8 20 0 5 3 4 6 -3 2 -6 9 -10
14 -6z m-66 -16 c4 -6 12 -8 18 -4 7 3 1 -4 -13 -15 -14 -11 -29 -21 -35 -20
-5 0 -2 4 8 10 22 13 22 30 0 22 -11 -4 -14 -3 -9 5 9 15 23 15 31 2z m48 -30
c3 -11 1 -18 -4 -14 -5 3 -9 12 -9 20 0 20 7 17 13 -6z m-33 -4 c0 -2 -8 -10
-17 -17 -16 -13 -17 -12 -4 4 13 16 21 21 21 13z m28 -41 c-3 -3 -9 2 -12 12
-6 14 -5 15 5 6 7 -7 10 -15 7 -18z m-18 -19 c0 -3 -4 -8 -10 -11 -5 -3 -10
-1 -10 4 0 6 5 11 10 11 6 0 10 -2 10 -4z m11 -29 c-10 -9 -11 -8 -5 6 3 10 9
15 12 12 3 -3 0 -11 -7 -18z m-86 -152 c-1 -19 -5 -38 -8 -42 -4 -3 -6 12 -5
35 1 23 4 42 8 42 3 0 5 -16 5 -35z m-8 -87 c-3 -7 -5 -2 -5 12 0 14 2 19 5
13 2 -7 2 -19 0 -25z m0 -60 c-3 -7 -5 -2 -5 12 0 14 2 19 5 13 2 -7 2 -19 0
-25z m4390 -703 c229 -18 230 -18 323 -60 115 -52 278 -115 297 -115 20 0 63
-38 63 -56 0 -25 -248 -43 -735 -54 -209 -5 -454 -14 -545 -20 -200 -14 -470
-5 -470 15 0 33 25 67 129 175 l110 115 138 6 c269 11 504 9 690 -6z m-2184
-328 c56 -70 123 -261 132 -377 11 -136 -22 -335 -71 -430 -41 -82 -133 -177
-240 -251 -68 -46 -221 -116 -294 -134 -72 -17 -353 -34 -586 -35 l-151 0 -6
133 c-4 72 -10 148 -13 168 l-6 37 288 -5 c406 -8 495 6 602 94 118 97 178
240 170 408 -4 73 -10 100 -31 142 -35 69 -76 114 -139 154 -49 32 -50 34 -27
40 13 4 40 7 59 8 37 1 218 57 235 73 15 13 58 0 78 -25z m762 -127 c75 -42
208 -130 217 -144 8 -12 10 -720 2 -747 -9 -31 -273 -229 -306 -229 -4 0 -8
266 -8 592 0 562 1 590 18 576 9 -8 44 -30 77 -48z m2057 -36 l-23 -16 2 -415
c0 -228 -3 -419 -8 -423 -4 -5 -60 -52 -123 -104 -110 -92 -175 -134 -187
-122 -8 7 -8 1 -5 578 l2 507 150 -2 c83 -1 158 1 168 5 33 13 47 8 24 -8z
m-730 -332 c2 -53 2 -99 0 -101 -1 -3 -162 -7 -357 -9 l-355 -5 0 109 0 109
354 -3 355 -2 3 -98z m-2899 -1062 c15 0 17 -11 17 -95 l0 -95 90 0 90 0 0 90
0 90 40 0 40 0 0 -234 0 -234 -39 -4 -40 -3 -5 70 c-4 38 -7 86 -9 105 l-2 35
-60 3 c-32 2 -70 0 -83 -3 -24 -6 -24 -7 -20 -108 l3 -102 -40 3 c-22 2 -41 5
-42 6 -9 8 -14 205 -8 331 7 154 8 157 29 151 11 -3 29 -6 39 -6z m963 0 l24
0 0 -239 0 -239 -32 -5 c-18 -2 -36 -3 -40 0 -5 2 -8 35 -8 72 0 37 -3 96 -6
130 -7 61 -7 61 -23 37 -9 -13 -33 -49 -53 -80 -21 -31 -43 -56 -49 -56 -12 0
-48 40 -49 54 0 14 -61 106 -70 106 -5 0 -6 -35 -3 -79 3 -43 3 -103 -1 -132
l-7 -54 -39 3 -40 4 0 239 0 239 35 0 c32 0 37 -4 61 -52 15 -29 46 -81 70
-116 l43 -64 38 59 c21 32 52 87 68 120 19 39 35 60 43 57 8 -2 25 -4 38 -4z
m2689 -35 c42 -31 44 -56 9 -84 -35 -28 -52 -26 -64 4 -20 51 -115 39 -115
-15 0 -21 14 -32 90 -71 103 -54 135 -86 135 -133 0 -68 -98 -156 -173 -156
-43 0 -88 24 -130 68 l-39 40 23 16 c31 21 45 20 76 -4 32 -25 104 -27 128 -4
31 31 14 55 -63 94 -124 63 -157 112 -126 189 38 96 161 124 249 56z m361 19
c75 -51 81 -75 24 -104 l-40 -21 -10 25 c-10 28 -46 42 -84 32 -26 -6 -56 -31
-56 -46 0 -14 50 -44 123 -76 90 -38 122 -72 122 -129 0 -55 -26 -91 -91 -127
-88 -49 -170 -28 -233 61 -21 30 -21 30 -2 40 30 16 60 13 88 -9 49 -38 148
-15 141 32 -3 23 -3 23 -102 70 -89 43 -126 84 -126 141 0 107 151 175 246
111z m-5106 -13 c40 -29 70 -80 70 -122 0 -30 -6 -42 -32 -64 -36 -28 -37 -27
27 -69 27 -18 27 -86 -1 -123 -45 -61 -77 -73 -195 -73 -59 0 -114 -3 -123 -6
-14 -6 -16 19 -16 238 l0 244 123 -4 c96 -3 127 -7 147 -21z m432 -5 c48 -32
71 -80 65 -139 -4 -43 -10 -56 -41 -84 -43 -40 -42 -55 13 -141 20 -31 40 -63
45 -69 5 -10 -5 -13 -42 -13 l-49 0 -51 79 c-46 72 -53 80 -81 79 l-31 -1 0
-79 0 -78 -29 0 c-16 0 -37 -3 -45 -6 -15 -6 -16 17 -15 237 l3 244 115 -5
c90 -4 122 -9 143 -24z m396 -63 c22 -54 50 -129 62 -168 13 -38 36 -103 51
-143 16 -40 29 -75 29 -77 0 -3 -20 -5 -45 -5 l-44 0 -16 55 -16 55 -80 0 -79
0 -16 -37 c-9 -21 -20 -45 -24 -53 -4 -9 -24 -16 -48 -18 l-41 -3 19 68 c10
38 32 104 48 148 16 44 39 124 52 178 l24 97 42 0 42 0 40 -97z m725 -10 c4
-58 7 -166 7 -240 l0 -133 -45 0 -45 0 0 240 0 240 38 0 39 0 6 -107z m1065
65 l-3 -43 -102 -3 -103 -3 0 -54 0 -55 80 0 80 0 0 -44 0 -44 -81 5 -80 6 3
-59 3 -59 35 3 c19 2 67 1 107 -3 l73 -7 0 -39 0 -39 -155 0 -155 0 0 240 0
240 151 0 150 0 -3 -42z m172 -153 l0 -195 94 0 c103 0 106 -2 106 -65 l0 -34
-145 2 -145 2 0 243 0 242 45 0 45 0 0 -195z m740 -45 l0 -240 -24 0 c-13 0
-31 -3 -40 -6 -14 -5 -16 6 -16 84 0 50 -3 97 -6 106 -5 13 -23 16 -90 16
l-84 0 0 -100 0 -100 -40 0 -39 0 -3 235 -3 235 43 0 43 0 -3 -95 -3 -95 93 0
92 0 0 100 0 100 40 0 40 0 0 -240z m376 199 c48 -45 72 -101 80 -185 8 -86
-7 -143 -49 -191 -34 -39 -97 -72 -137 -73 -39 0 -125 55 -151 97 -19 30 -24
55 -27 130 -6 119 2 155 41 200 43 49 80 64 150 60 49 -3 62 -8 93 -38z m492
-141 c-3 -180 -4 -184 -31 -225 -15 -23 -39 -49 -54 -57 -72 -36 -123 -28
-181 27 -59 56 -62 69 -62 257 l0 170 34 0 33 0 7 -61 c3 -34 6 -107 6 -161 0
-110 7 -131 50 -153 41 -21 63 -19 91 11 22 23 24 34 24 117 0 51 1 127 3 169
l2 77 33 4 c17 2 36 5 40 5 5 1 7 -80 5 -180z m-1648 -670 l0 -90 60 7 60 7 0
-29 0 -28 -90 0 -90 0 0 116 0 116 30 -5 30 -4 0 -90z m1400 6 l5 -79 38 -3
37 -3 0 90 c0 86 1 91 21 91 20 0 21 -3 16 -96 -5 -82 -9 -100 -28 -120 -30
-32 -71 -31 -109 4 -31 28 -36 57 -32 164 2 45 3 47 25 39 20 -7 23 -17 27
-87z m868 74 c25 -21 13 -38 -28 -38 -57 0 -52 -24 10 -55 28 -14 53 -32 57
-40 26 -70 -89 -122 -149 -68 -30 27 -21 33 36 27 87 -10 87 22 1 66 -49 25
-53 37 -28 78 32 52 62 61 101 30z m-2550 -10 c-3 -20 -12 -24 -60 -32 -80
-12 -73 -45 8 -46 28 0 39 -27 16 -39 -9 -4 -34 -11 -54 -15 -58 -11 -45 -26
22 -26 48 0 61 -4 70 -19 5 -11 10 -23 10 -28 0 -4 -43 -7 -95 -5 l-95 3 0 99
c0 54 -3 105 -6 114 -5 14 6 16 91 16 94 0 96 0 93 -22z m793 12 c6 0 9 -21 7
-47 l-3 -48 41 -3 41 -3 6 47 c4 43 18 63 42 64 15 0 7 -223 -8 -232 -27 -17
-37 -8 -37 37 l0 45 -45 0 -45 0 0 -45 c0 -38 -3 -45 -20 -45 -19 0 -20 7 -20
121 0 106 2 120 16 115 9 -3 20 -6 25 -6z m561 -49 c86 -90 59 -151 -79 -175
-23 -4 -41 1 -65 17 -67 46 -74 117 -16 183 29 33 35 36 72 31 32 -5 51 -16
88 -56z m766 47 c7 -7 12 -21 12 -31 0 -16 -5 -18 -27 -12 -45 11 -47 11 -50
-6 -3 -11 9 -22 34 -34 53 -24 73 -44 73 -71 0 -55 -102 -85 -151 -45 -34 28
-15 44 33 29 35 -10 88 -5 88 10 0 4 -20 15 -44 25 -23 10 -56 31 -72 48 l-29
30 37 35 c39 35 75 43 96 22z"/>
<path d="M2510 7450 c-13 -8 -13 -10 2 -10 12 0 15 -5 11 -16 -3 -8 -12 -13
-19 -10 -9 3 -11 0 -7 -11 5 -14 9 -13 24 6 10 12 22 20 27 17 5 -3 9 2 9 10
0 8 -6 13 -13 10 -7 -3 -14 -1 -16 4 -2 6 -9 5 -18 0z"/>
<path d="M2468 7353 c7 -3 16 -2 19 1 4 3 -2 6 -13 5 -11 0 -14 -3 -6 -6z"/>
<path d="M2574 3905 l0 -55 57 0 c59 0 71 7 88 52 16 42 -7 58 -83 58 l-63 0
1 -55z"/>
<path d="M2572 3719 l-3 -51 72 4 c87 5 108 22 83 69 -14 28 -18 29 -82 29
l-67 0 -3 -51z"/>
<path d="M3015 3898 l0 -73 60 2 c68 3 85 17 85 70 0 40 -25 59 -95 68 l-50 6
0 -73z"/>
<path d="M3478 3845 c-14 -39 -24 -73 -21 -77 2 -5 27 -8 54 -8 49 0 49 0 43
28 -4 15 -17 49 -29 77 l-21 49 -26 -69z"/>
<path d="M6502 3963 c-36 -7 -47 -40 -47 -147 0 -98 0 -98 33 -127 43 -39 84
-38 123 0 28 28 29 33 29 126 0 53 -5 105 -10 115 -6 11 -27 24 -48 30 -38 10
-41 10 -80 3z"/>
<path d="M6430 3220 c-6 -12 -10 -35 -8 -53 4 -41 34 -47 83 -17 44 27 44 43
1 69 -42 26 -62 26 -76 1z"/>
</g>
</svg>
